<svg version="1.1" id="Layer_1" xmlns="http://www.w3.org/2000/svg" xmlns:xlink="http://www.w3.org/1999/xlink" x="0px" y="0px"
	 width="100%" viewBox="0 0 1024 1024" enable-background="new 0 0 1024 1024" xml:space="preserve">
<path fill="#000000" opacity="1.000000" stroke="none" 
	d="
M455.807953,900.129822 
	C450.862518,880.043335 447.498840,860.032349 443.656555,840.116943 
	C443.186615,837.681274 442.645050,835.259521 442.034973,832.345581 
	C439.893524,833.678223 439.467133,835.663208 438.659912,837.289612 
	C430.001953,854.733887 421.400909,872.206360 412.766205,889.662231 
	C409.954620,895.345947 408.354034,895.835449 401.663879,892.712341 
	C403.948822,887.830139 406.154602,882.886597 408.551117,878.037292 
	C417.770538,859.381897 427.101196,840.781250 436.261169,822.096863 
	C437.855804,818.844177 439.760651,817.198914 443.596802,817.822388 
	C447.303497,818.424683 448.764252,820.240234 449.455811,823.954163 
	C453.284454,844.514587 457.418884,865.018005 461.527344,885.942078 
	C464.086121,884.998840 464.467407,882.885132 465.291321,881.271240 
	C474.072327,864.070862 482.937317,846.910156 491.413879,829.560059 
	C493.305939,825.687317 495.698120,825.279663 499.328857,825.643188 
	C503.020203,826.012817 503.779083,828.283936 504.357819,831.324280 
	C509.111816,856.298462 513.967773,881.253296 518.779053,906.216614 
	C518.930542,907.002625 518.933777,907.817078 519.002808,908.580383 
	C511.901733,910.410095 509.811584,909.172852 508.513550,902.404358 
	C504.512665,881.541870 500.544830,860.673096 496.383820,838.861206 
	C488.153809,855.045837 480.333160,870.410889 472.528748,885.784119 
	C470.720612,889.345764 468.971100,892.937195 467.189148,896.512207 
	C463.866913,903.177429 463.330963,903.366455 455.807953,900.129822 
z"/>
<path fill="#000000" opacity="1.000000" stroke="none" 
	d="
M186.593811,708.986633 
	C191.204483,691.740540 202.492584,681.812439 219.166901,678.487488 
	C234.817917,675.366516 247.670059,681.453369 257.511261,693.503662 
	C264.552307,702.125122 270.765045,711.419312 277.483795,720.310242 
	C279.554810,723.050842 278.713257,724.537964 276.225800,726.328857 
	C256.922363,740.226196 237.655365,754.175232 218.479324,768.247559 
	C215.518616,770.420349 213.742981,770.265747 211.624207,767.233582 
	C205.526733,758.507507 198.903732,750.135254 193.072510,741.240295 
	C186.766647,731.621338 183.925644,721.001038 186.593811,708.986633 
M194.404938,718.450195 
	C194.741486,726.337830 197.311874,733.421326 202.009567,739.759583 
	C205.679352,744.710876 209.466614,749.587402 212.882385,754.710022 
	C214.858002,757.672913 216.557632,757.819763 219.312454,755.791321 
	C234.065536,744.928528 248.883087,734.152649 263.737213,723.428345 
	C266.284149,721.589539 266.794159,719.906006 264.790558,717.284668 
	C260.745819,711.992859 256.998383,706.473938 252.958923,701.177856 
	C244.180878,689.669250 231.229034,684.621155 219.260666,687.890625 
	C204.989822,691.789185 196.081665,702.438477 194.404938,718.450195 
z"/>
<path fill="#000000" opacity="1.000000" stroke="none" 
	d="
M862.278564,425.080444 
	C873.392395,423.454041 884.099976,422.088593 894.734131,420.288940 
	C898.074158,419.723694 899.384216,420.690094 899.770935,423.759155 
	C901.346313,436.262634 904.445984,448.583313 904.365540,461.284576 
	C904.231995,482.379456 890.696594,497.910492 869.746887,501.076874 
	C850.237549,504.025543 832.441162,492.717712 826.382690,473.107330 
	C822.544983,460.685089 822.091614,447.607086 819.782593,434.880554 
	C819.139709,431.337036 821.653381,430.781097 824.298157,430.414062 
	C836.814758,428.676941 849.328979,426.922119 862.278564,425.080444 
M893.177612,437.216553 
	C891.923462,429.798248 893.608582,430.427643 885.251221,431.382294 
	C880.628723,431.910339 876.031372,432.658997 871.422913,433.309601 
	C859.083191,435.051697 846.733459,436.727295 834.412781,438.595001 
	C831.999756,438.960815 828.712708,438.909729 829.435181,443.117828 
	C830.839294,451.295227 831.718933,459.588623 833.589233,467.654633 
	C837.460693,484.350464 851.666199,493.806793 868.707336,491.582855 
	C884.658752,489.501129 895.630371,476.781799 895.857849,460.298798 
	C895.961853,452.762390 894.205811,445.462494 893.177612,437.216553 
z"/>
<path fill="#000000" opacity="1.000000" stroke="none" 
	d="
M863.229919,364.311462 
	C845.523132,373.298584 828.128113,382.078339 810.805115,390.998047 
	C807.794800,392.548065 805.761169,392.873779 804.029968,389.287140 
	C802.646301,386.420319 802.871460,384.697144 805.932800,383.417969 
	C807.239014,382.872253 808.764038,382.442322 809.592346,381.044189 
	C790.404968,370.350128 783.591980,355.839325 790.314697,340.047363 
	C796.444885,325.647369 814.475708,317.171143 828.917786,321.900208 
	C844.526367,327.011261 852.335327,342.594940 848.354187,361.372070 
	C856.751282,357.147675 864.907532,353.112640 872.993591,348.941467 
	C876.044800,347.367523 878.362976,346.150879 880.483643,350.554718 
	C882.462036,354.663147 880.404968,355.828705 877.423950,357.244934 
	C872.762939,359.459290 868.181274,361.840759 863.229919,364.311462 
M811.575745,331.918274 
	C810.386292,332.507874 809.154480,333.025665 808.014099,333.698364 
	C798.374512,339.384827 794.431824,349.812012 798.114014,359.796875 
	C802.014587,370.373962 810.791992,375.452942 822.154236,373.707489 
	C833.041748,372.034973 841.696289,362.808136 841.980347,352.570312 
	C842.427429,336.461365 828.379578,326.533295 811.575745,331.918274 
z"/>
<path fill="#000000" opacity="1.000000" stroke="none" 
	d="
M201.293564,386.752563 
	C190.821579,381.548462 180.684418,376.507690 170.530106,371.501740 
	C167.631516,370.072754 164.642014,369.142578 166.915878,364.609772 
	C169.070969,360.313721 171.454727,361.998901 174.173126,363.398560 
	C174.893372,363.769409 175.677902,364.015411 177.453812,364.728912 
	C173.197968,352.944397 175.458725,342.850403 182.767685,333.941833 
	C187.701874,327.927765 194.112717,324.414917 201.950409,323.346008 
	C216.253189,321.395386 232.730438,332.536102 236.562180,346.980835 
	C240.497757,361.816986 232.258347,376.554169 215.514999,383.321777 
	C220.263718,385.741791 224.433014,387.896942 228.630249,389.996216 
	C232.203217,391.783264 235.769669,393.591949 239.411392,395.230133 
	C242.384918,396.567780 243.335114,398.087646 241.638580,401.377411 
	C239.981262,404.591156 238.597610,405.364349 235.165924,403.584686 
	C224.085510,397.838226 212.817566,392.453369 201.293564,386.752563 
M228.607819,357.051208 
	C228.874512,344.663147 222.272644,336.334076 209.642609,333.170044 
	C201.631180,331.163055 194.843170,333.411865 189.341202,339.404755 
	C183.758438,345.485657 181.740753,352.616089 184.288834,360.608643 
	C187.368759,370.269379 197.846069,377.172363 208.297440,376.720062 
	C218.371841,376.284027 225.474945,369.651428 228.607819,357.051208 
z"/>
<path fill="#000000" opacity="1.000000" stroke="none" 
	d="
M346.989136,793.961182 
	C333.913239,812.455139 320.994446,830.622498 308.259033,848.917542 
	C306.143311,851.956848 304.421265,852.376343 301.437439,850.212219 
	C298.600311,848.154419 298.525696,846.395752 300.533203,843.657349 
	C306.120667,836.035461 311.476990,828.244080 317.603333,819.557251 
	C306.076416,821.752319 297.015289,818.867798 289.436188,811.378723 
	C284.120911,806.126526 281.023193,799.856079 280.677155,792.360901 
	C279.954254,776.702942 292.638428,760.810364 307.045563,758.815247 
	C321.838043,756.766724 339.041962,766.226929 341.722137,784.560181 
	C343.463501,784.652771 343.741608,783.035645 344.443756,782.073853 
	C346.279694,779.559082 347.881989,777.831543 351.278320,780.306519 
	C354.515991,782.665833 354.015472,784.595764 351.853577,787.187073 
	C350.153839,789.224426 348.745453,791.504883 346.989136,793.961182 
M325.572784,771.879883 
	C316.315948,765.958923 307.979645,765.768311 300.545837,771.307495 
	C292.358612,777.408081 287.886871,787.670105 289.981384,795.551453 
	C292.563904,805.269043 300.709656,812.149963 310.321808,812.733704 
	C319.757965,813.306702 328.675812,807.014465 332.874146,796.821228 
	C336.627380,787.708618 334.370544,779.489685 325.572784,771.879883 
z"/>
<path fill="#000000" opacity="1.000000" stroke="none" 
	d="
M716.667114,761.702393 
	C711.717773,754.398010 706.804321,747.279236 701.662659,740.329285 
	C699.535461,737.453796 700.229126,735.795288 702.901733,733.833557 
	C705.761719,731.734375 707.387756,732.309326 709.350708,735.058777 
	C723.563232,754.964905 737.840759,774.825500 752.255798,794.585205 
	C754.633728,797.844849 754.124329,799.731506 750.949646,801.808289 
	C748.597900,803.346619 747.080688,803.047974 745.570801,800.791870 
	C744.768188,799.592651 744.159485,798.135559 742.679932,797.509338 
	C741.536438,798.010742 741.567200,799.086304 741.354858,800.015320 
	C736.913391,819.443115 714.553406,829.412354 697.366455,819.320496 
	C686.691040,813.052063 680.895142,803.292297 680.826904,790.906311 
	C680.762573,779.229553 687.031860,770.914917 696.828247,765.007080 
	C703.032288,761.265747 709.762817,761.321106 716.667114,761.702393 
M734.619019,790.895813 
	C734.250427,789.277832 734.008301,787.618286 733.492737,786.048584 
	C730.213379,776.064392 720.479187,769.002136 710.514526,769.306335 
	C701.833679,769.571350 692.877686,776.455872 690.737122,785.021545 
	C688.316345,794.708069 691.594360,802.864685 698.935913,809.178772 
	C705.684631,814.983154 713.581421,816.265564 721.752563,812.382202 
	C730.319702,808.310730 734.970642,801.507263 734.619019,790.895813 
z"/>
<path fill="#000000" opacity="1.000000" stroke="none" 
	d="
M695.192810,253.814545 
	C686.755554,247.322586 687.544128,248.495850 693.233215,241.251740 
	C706.910095,223.836502 720.714294,206.520233 734.262451,189.005737 
	C736.907776,185.585938 738.778870,185.130188 742.228149,187.936142 
	C753.980286,197.496460 765.921875,206.826080 777.885376,216.122482 
	C780.435974,218.104431 781.311584,219.712418 779.076416,222.620911 
	C776.660583,225.764389 774.837891,224.546783 772.504089,222.680771 
	C763.401611,215.402679 754.217529,208.226471 745.053284,201.025726 
	C743.629883,199.907272 742.151733,198.858490 740.373413,197.535385 
	C734.559387,203.615723 729.761292,210.160019 725.024902,216.736816 
	C723.250122,219.201218 725.706604,220.299164 727.161865,221.464966 
	C734.698547,227.502426 742.297729,233.461929 749.857849,239.470245 
	C751.536438,240.804260 753.145508,242.225708 754.696350,243.531006 
	C752.039734,250.512726 750.762878,250.886948 745.306213,246.558502 
	C736.463440,239.544052 727.621704,232.528381 718.516907,225.304977 
	C712.252014,231.811707 707.408081,238.760666 702.282776,245.469360 
	C700.395386,247.939835 702.745911,249.021530 704.225525,250.198669 
	C714.127991,258.076904 724.042786,265.940002 734.002441,273.745667 
	C736.366699,275.598602 738.482056,276.938324 735.695618,280.432800 
	C732.952759,283.872559 731.175476,282.286713 728.776794,280.372986 
	C717.713806,271.546814 706.581604,262.807434 695.192810,253.814545 
z"/>
<path fill="#000000" opacity="1.000000" stroke="none" 
	d="
M817.231934,666.285950 
	C821.002991,658.127808 825.565979,650.742432 828.431213,642.619873 
	C821.492859,638.260254 811.014709,640.768311 805.247375,648.015198 
	C800.224976,654.326111 797.863098,661.494629 799.549011,669.473938 
	C800.285278,672.958618 799.313599,674.385071 796.084900,675.076111 
	C792.447449,675.854675 791.947327,673.356201 791.298828,670.855896 
	C788.320557,659.372070 794.499390,644.142700 805.167908,636.712158 
	C815.848450,629.273132 828.933044,629.413696 840.184998,637.232239 
	C849.584961,643.763916 855.156982,652.537354 853.935852,664.282288 
	C852.714966,676.026428 846.856445,685.010681 835.688538,689.712708 
	C827.409668,693.198425 819.098755,692.280334 810.984131,688.722839 
	C808.341187,687.564209 807.566162,685.982422 808.980591,683.223450 
	C811.788269,677.746643 814.377197,672.157593 817.231934,666.285950 
M842.713623,651.918091 
	C840.908447,649.348938 838.937500,646.972900 835.472229,645.441772 
	C829.548157,657.690918 823.774963,669.628235 817.773621,682.037109 
	C827.081970,684.076416 834.575623,683.260437 840.248840,676.553833 
	C846.384216,669.301086 847.745117,661.216431 842.713623,651.918091 
z"/>
<path fill="#000000" opacity="1.000000" stroke="none" 
	d="
M659.295044,855.841064 
	C644.597839,857.674805 634.121094,852.465454 627.658142,840.433044 
	C624.917053,835.329834 625.093384,834.594421 630.354248,832.227844 
	C641.885010,827.041016 653.465759,821.965393 665.002808,816.792480 
	C666.622253,816.066406 668.531189,815.674194 669.460571,813.888245 
	C666.457764,806.446350 657.247864,801.756775 648.400024,803.620178 
	C640.659058,805.250610 633.912720,808.784119 630.246216,816.308960 
	C628.849243,819.175964 627.521240,820.607300 624.212585,818.777649 
	C620.776611,816.877502 621.706543,814.552185 623.085876,812.082642 
	C629.220154,801.099792 638.991821,795.710999 651.173645,794.905457 
	C663.749023,794.073792 672.929138,800.135681 679.024414,810.823425 
	C689.770630,829.666321 680.801147,850.343506 659.295044,855.841064 
M663.705261,825.316223 
	C654.672485,829.387512 645.639648,833.458801 636.579956,837.542236 
	C642.094788,848.117981 654.394775,851.117920 664.843445,845.010498 
	C673.500000,839.950439 677.291870,828.775879 672.472412,821.498840 
	C669.829346,822.651184 667.112976,823.835449 663.705261,825.316223 
z"/>
<path fill="#000000" opacity="1.000000" stroke="none" 
	d="
M261.985321,276.127197 
	C256.537506,285.612823 249.163223,293.343597 242.871368,301.893219 
	C239.640503,306.283478 236.159470,310.489655 232.526108,315.116943 
	C238.130402,319.406097 243.903412,319.706482 249.813156,318.037781 
	C259.564850,315.284241 266.412415,305.966675 266.944397,295.291260 
	C267.047241,293.227234 266.427979,290.846619 269.414978,290.016754 
	C273.042206,289.008972 275.293732,290.416687 275.268463,294.365143 
	C275.183136,307.704254 268.955780,317.728699 257.488464,324.043640 
	C246.426971,330.135101 235.190033,329.135193 225.096848,321.632172 
	C214.876831,314.034851 209.318161,303.746613 212.236160,290.800964 
	C214.968002,278.681274 222.734512,270.395660 235.052078,267.529602 
	C245.355392,265.132172 254.377060,268.371094 261.985321,276.127197 
M220.445679,300.689545 
	C221.617432,304.339600 222.983749,307.864563 226.734512,310.470490 
	C230.765274,305.475342 234.734848,300.625488 238.626892,295.714203 
	C242.936813,290.275635 247.175827,284.780884 251.340698,279.445129 
	C250.314163,277.345642 248.624542,276.949951 247.106857,276.391998 
	C232.025421,270.847168 217.174957,285.669739 220.445679,300.689545 
z"/>
<path fill="#000000" opacity="1.000000" stroke="none" 
	d="
M873.023621,514.780762 
	C885.525085,522.762329 890.269226,534.834351 886.548645,548.521667 
	C883.095764,561.224304 872.466248,569.255615 858.383484,569.802246 
	C852.062317,570.047668 851.243530,569.329285 851.726318,562.895752 
	C852.722412,549.622925 853.880310,536.362122 854.953918,523.095032 
	C855.031433,522.137024 854.964111,521.167358 854.964111,519.784912 
	C847.577393,519.868713 841.737854,522.613220 838.003662,528.637451 
	C832.450623,537.595886 832.354248,547.015015 837.754272,556.078186 
	C839.564514,559.116394 839.307373,560.588867 836.475403,562.469666 
	C833.164185,564.668762 831.990356,562.264771 830.596252,560.227295 
	C822.933777,549.027771 824.324463,530.808594 833.617065,520.098999 
	C842.522278,509.835693 858.362915,507.611176 873.023621,514.780762 
M874.731934,526.809021 
	C871.478455,523.648987 867.960022,521.020447 862.584229,520.743164 
	C861.491516,533.136536 860.364990,545.301636 859.377930,557.478027 
	C859.075745,561.205627 861.595886,560.881775 864.072449,560.286682 
	C878.625793,556.789795 884.650513,539.366150 874.731934,526.809021 
z"/>
<path fill="#000000" opacity="1.000000" stroke="none" 
	d="
M395.992493,830.256836 
	C399.195923,813.293457 384.482697,799.316284 367.918976,802.975342 
	C365.977112,803.404297 363.565521,805.597717 361.837524,802.267212 
	C359.907562,798.547363 360.706085,796.687988 365.056885,795.317261 
	C380.218719,790.540833 399.681885,801.114380 404.605927,816.802673 
	C408.463379,829.092773 403.161163,844.361450 392.293762,852.257751 
	C382.615448,859.289978 368.787537,859.114990 358.034210,851.823914 
	C346.584961,844.060974 342.489136,827.767700 348.545685,815.310425 
	C350.245483,811.814270 352.258240,812.847290 354.597687,813.869202 
	C366.653717,819.135925 378.689240,824.449890 390.765106,829.670593 
	C392.318878,830.342346 393.829529,831.965637 395.992493,830.256836 
M383.949005,834.600220 
	C374.699615,830.581970 365.450256,826.563660 356.248199,822.565918 
	C351.648376,831.310547 356.176514,842.507751 365.665833,847.043823 
	C375.976471,851.972473 388.051270,848.198853 392.076660,838.528259 
	C389.942169,836.719604 387.119720,836.131958 383.949005,834.600220 
z"/>
<path fill="#000000" opacity="1.000000" stroke="none" 
	d="
M223.956558,631.350342 
	C228.378769,644.163452 227.592728,655.768799 217.554077,665.276978 
	C207.944092,674.379211 196.522232,677.070679 183.883881,672.853027 
	C173.130264,669.264404 164.914917,656.883240 164.784622,644.820862 
	C164.665009,633.747192 173.121323,621.747986 183.597321,617.588623 
	C187.080246,616.205750 188.041031,618.101868 189.079224,620.569275 
	C194.109985,632.525208 199.146118,644.478943 204.203156,656.423767 
	C204.906723,658.085571 205.277893,659.946167 207.313950,661.620789 
	C212.949554,658.935303 216.496902,654.154724 217.425095,648.104492 
	C219.428986,635.042358 213.667297,625.597534 202.275421,619.640198 
	C204.140381,612.545776 205.412033,611.966614 211.086899,615.383240 
	C217.187790,619.056396 220.978226,624.632141 223.956558,631.350342 
M188.873184,638.548462 
	C187.191208,635.010864 186.309464,631.070801 183.866638,627.918396 
	C173.497940,633.036377 170.192474,645.129822 176.011749,655.795105 
	C180.803787,664.577759 191.690659,668.542297 199.496262,663.948975 
	C196.073959,655.760071 192.623642,647.504089 188.873184,638.548462 
z"/>
<path fill="#000000" opacity="1.000000" stroke="none" 
	d="
M190.202164,543.223694 
	C174.189957,555.893372 152.494736,553.332642 142.606903,537.687622 
	C136.530182,528.072815 135.973099,517.838867 141.172821,507.744202 
	C146.438599,497.521301 155.667099,493.059723 166.726761,491.831940 
	C170.347702,491.429932 171.274124,493.405029 171.336487,496.624298 
	C171.581345,509.263336 171.950851,521.900146 172.317337,534.536499 
	C172.379059,536.664978 171.937851,538.868042 172.965042,540.888855 
	C180.142563,541.194336 187.011810,536.343628 189.795105,528.621094 
	C193.009384,519.702698 192.020828,511.170624 186.039352,503.678131 
	C183.953079,501.064819 183.606659,499.452789 186.234756,497.085846 
	C189.107651,494.498444 190.596146,496.354187 192.349747,498.291077 
	C202.835724,509.872894 201.967606,530.770203 190.202164,543.223694 
M150.162994,534.259155 
	C152.941071,537.784973 156.536758,539.935303 160.865234,541.159912 
	C164.388550,542.156738 166.049530,541.344238 165.555817,537.513123 
	C164.317352,527.902954 164.879883,518.238037 164.620438,508.597870 
	C164.555191,506.173828 164.798203,503.591827 162.833664,501.685089 
	C147.824188,504.068481 141.496338,519.662781 150.162994,534.259155 
z"/>
<path fill="#000000" opacity="1.000000" stroke="none" 
	d="
M744.656677,762.293945 
	C736.424072,752.232422 734.496521,741.331848 739.738525,729.844604 
	C744.980042,718.358093 754.376709,711.823059 767.008972,710.862244 
	C779.594727,709.905151 793.026001,719.232727 797.761108,731.518860 
	C802.351929,743.430725 798.572266,757.477722 788.525940,765.840576 
	C774.491943,777.523010 758.610413,776.328857 744.656677,762.293945 
M790.661621,746.878784 
	C791.488586,734.406860 785.369202,724.925903 774.006348,721.074219 
	C759.598755,716.190369 743.713074,729.018311 745.934998,743.742188 
	C747.525757,754.283020 757.015808,763.639832 767.134216,764.643799 
	C777.612122,765.683594 786.531006,759.230347 790.661621,746.878784 
z"/>
<path fill="#000000" opacity="1.000000" stroke="none" 
	d="
M403.567261,130.488922 
	C405.192993,129.919861 406.478333,129.545227 407.695038,129.013596 
	C410.405640,127.829262 411.988983,128.556000 412.981476,131.438156 
	C413.992828,134.375046 413.477173,136.031342 410.349182,137.095810 
	C398.847015,141.010178 387.459106,145.266296 375.915314,149.049347 
	C371.662048,150.443192 370.925140,152.281433 372.621582,156.327194 
	C375.128021,162.304626 377.199860,168.482376 379.127960,174.677170 
	C380.216156,178.173416 381.775360,179.059753 385.293854,177.764038 
	C395.136566,174.139404 405.114258,170.882599 414.978607,167.314514 
	C417.949615,166.239853 419.931763,166.125885 421.102661,169.715500 
	C422.255035,173.248306 420.636780,174.397583 417.655182,175.397629 
	C407.871643,178.679123 398.193146,182.274948 388.399719,185.525299 
	C384.765350,186.731506 383.731049,188.377258 385.214630,192.115005 
	C388.098602,199.380676 390.489075,206.840637 393.255493,214.155273 
	C394.454987,217.326904 394.368011,219.364868 390.614075,220.662521 
	C387.154358,221.858459 385.650085,221.160355 384.413483,217.621643 
	C376.615784,195.307114 368.662231,173.046066 360.578339,150.833511 
	C359.269928,147.238297 360.314209,145.705048 363.628357,144.557175 
	C376.842285,139.980469 390.010559,135.271866 403.567261,130.488922 
z"/>
<path fill="#000000" opacity="1.000000" stroke="none" 
	d="
M151.454849,411.720215 
	C158.303619,397.419586 171.331085,391.047607 186.149887,394.457825 
	C200.830978,397.836395 211.574234,410.191650 210.905838,424.206879 
	C210.300186,436.906891 205.169586,447.602020 192.868011,453.045807 
	C180.873764,458.353607 169.196289,456.522278 159.166397,448.379150 
	C148.761673,439.931732 146.738083,428.476868 150.030777,415.857941 
	C150.365433,414.575409 150.880264,413.339935 151.454849,411.720215 
M175.828033,403.178741 
	C169.259872,403.693207 163.988968,406.563477 160.604294,412.243500 
	C156.003891,419.963654 155.307419,428.145355 160.054428,435.917145 
	C164.928452,443.896942 172.963867,446.866852 181.905594,446.457794 
	C191.213181,446.031982 197.797150,441.199829 200.975235,432.148499 
	C204.048935,423.394379 202.389908,415.725220 195.585999,409.437897 
	C190.313065,404.565308 183.848297,402.714111 175.828033,403.178741 
z"/>
<path fill="#000000" opacity="1.000000" stroke="none" 
	d="
M530.965698,189.004425 
	C520.148499,198.060959 505.512085,199.402115 493.841187,192.629547 
	C482.549866,186.077271 477.172302,172.976547 479.819794,158.470840 
	C481.921844,146.953445 491.796967,137.442673 503.888702,135.289978 
	C517.973083,132.782532 531.445862,139.097977 537.677185,151.128494 
	C544.121460,163.570160 541.604797,178.250351 530.965698,189.004425 
M500.191345,186.465408 
	C517.584412,193.221008 532.665955,182.335083 531.637878,163.767044 
	C531.109863,154.228943 524.983276,146.289703 516.218811,143.785812 
	C507.243073,141.221588 497.198883,144.675964 492.286102,152.016800 
	C484.703949,163.346298 487.981079,178.771484 500.191345,186.465408 
z"/>
<path fill="#000000" opacity="1.000000" stroke="none" 
	d="
M810.075439,300.716156 
	C808.343872,304.047180 806.350403,306.751984 803.788025,308.894684 
	C794.979431,316.260437 786.006897,323.431000 777.236084,330.840790 
	C774.408020,333.230042 772.986267,331.887970 771.231934,329.631439 
	C769.501160,327.405212 768.491333,325.776825 771.427551,323.489655 
	C779.043152,317.557404 786.417175,311.315247 793.895264,305.206085 
	C804.069824,296.894043 805.635498,288.242249 798.552002,279.405762 
	C790.734619,269.653717 779.922852,268.274902 770.003601,276.020874 
	C762.527283,281.859222 755.170288,287.862061 747.971375,294.037964 
	C745.275818,296.350494 743.669434,296.186737 741.512024,293.463074 
	C739.507263,290.932098 738.989258,289.342957 741.947754,286.971008 
	C755.583435,276.038788 769.024780,264.864197 782.551697,253.795898 
	C783.431396,253.076096 784.443848,252.518448 785.334167,251.925507 
	C791.731689,256.748901 791.741943,257.288666 785.242188,263.577209 
	C797.087341,265.282562 805.214905,271.708374 810.230774,282.040680 
	C813.166138,288.087189 813.036865,294.255585 810.075439,300.716156 
z"/>
<path fill="#000000" opacity="1.000000" stroke="none" 
	d="
M553.806396,170.038452 
	C555.600342,160.801575 557.332947,151.987228 559.056396,143.171051 
	C559.691956,139.919922 560.211609,136.936417 564.980896,138.055817 
	C569.557251,139.129959 568.478943,142.014328 567.908020,144.955505 
	C567.756958,145.733688 567.584656,146.507751 567.226562,148.217316 
	C576.522583,141.528702 585.913940,141.016418 595.673157,144.496964 
	C606.763916,148.452362 613.054321,158.465485 611.067566,169.958008 
	C609.086914,181.415451 606.453918,192.759369 604.167664,204.165237 
	C603.548706,207.253326 602.093628,208.161835 598.890991,207.435745 
	C595.551086,206.678513 594.417297,205.205917 595.125488,201.860657 
	C597.156311,192.267456 599.026001,182.640274 600.987549,173.032272 
	C603.349243,161.464127 599.276306,154.030579 589.093506,151.390091 
	C577.311218,148.334839 567.380737,153.332458 564.449646,164.566681 
	C561.932922,174.212708 560.229553,184.079224 558.403259,193.892288 
	C557.818420,197.035110 556.921631,198.843979 553.276062,198.103729 
	C549.665344,197.370560 548.276306,195.950546 549.311584,191.925369 
	C551.129150,184.858017 552.299927,177.624298 553.806396,170.038452 
z"/>
<path fill="#000000" opacity="1.000000" stroke="none" 
	d="
M839.961548,619.053894 
	C832.354431,612.794800 825.073547,606.693298 817.642334,600.780701 
	C815.395752,598.993225 815.147522,597.002502 815.949036,594.615540 
	C816.663391,592.488037 816.829895,590.070251 819.968018,589.606934 
	C839.703613,586.693359 859.419128,583.644104 879.146973,580.677368 
	C880.255371,580.510681 881.477417,580.204773 882.494141,581.101624 
	C882.078552,588.604797 881.278198,589.394531 874.411987,590.351135 
	C860.410706,592.302002 846.423828,594.358032 832.441162,596.438721 
	C831.038269,596.647461 829.487976,596.755798 827.940552,598.300842 
	C835.717957,604.685852 843.401184,610.986755 851.076355,617.297363 
	C855.451599,620.894836 859.586731,624.840698 864.244995,628.021851 
	C869.009521,631.275635 869.484436,634.784546 865.819702,640.371399 
	C857.227722,633.291077 848.728943,626.287476 839.961548,619.053894 
z"/>
<path fill="#000000" opacity="1.000000" stroke="none" 
	d="
M204.046387,584.896606 
	C187.466187,597.075317 171.175919,609.014648 154.767365,621.040710 
	C151.011414,613.697876 151.267242,612.673462 156.755814,608.670044 
	C169.373657,599.466553 181.961334,590.221680 195.625565,580.214111 
	C187.106903,578.420715 179.743912,576.855103 172.373901,575.323242 
	C163.915100,573.565002 155.438156,571.891113 146.998413,570.046448 
	C145.438248,569.705383 143.442154,569.734985 142.509018,568.201233 
	C141.395264,566.370544 140.322784,564.084839 141.231476,562.082153 
	C142.312820,559.698914 144.686356,560.917114 146.548340,561.299805 
	C164.778946,565.046387 182.998444,568.847168 201.234406,572.567322 
	C203.843719,573.099609 205.821304,573.789795 206.502274,576.909912 
	C207.191071,580.065918 207.763748,582.815247 204.046387,584.896606 
z"/>
<path fill="#000000" opacity="1.000000" stroke="none" 
	d="
M633.293945,154.606506 
	C639.995178,157.096893 640.128723,157.145737 642.470337,150.743881 
	C643.767883,147.196548 644.932251,144.625427 649.480469,146.948318 
	C652.125732,148.299332 652.668152,149.557739 651.696594,152.378021 
	C648.871887,160.577881 649.005676,160.622986 657.300171,164.058395 
	C658.530823,164.568115 659.725586,165.187027 660.990173,165.587570 
	C663.704163,166.447159 665.341309,167.536789 664.085327,170.962051 
	C662.701599,174.735611 660.520325,174.049591 657.818054,172.929718 
	C654.000366,171.347610 650.127441,169.899017 646.454041,168.462204 
	C644.249329,170.173080 643.879639,172.397125 643.104431,174.364258 
	C639.685913,183.038895 636.125732,191.666031 633.016357,200.451752 
	C630.049072,208.836258 633.851257,214.292786 642.669678,214.683380 
	C645.753296,214.819977 648.440002,214.812775 648.230774,219.031693 
	C648.023376,223.213058 644.740051,222.597214 642.338745,222.623367 
	C627.263794,222.787567 619.177795,211.133316 624.471802,196.951096 
	C628.420288,186.373108 632.518127,175.850876 636.485229,165.471893 
	C634.744385,163.316315 632.490540,162.997879 630.580078,162.079681 
	C628.798828,161.223572 627.234985,160.279205 628.163208,157.947693 
	C629.006409,155.829651 629.544495,153.145508 633.293945,154.606506 
z"/>
<path fill="#000000" opacity="1.000000" stroke="none" 
	d="
M839.141357,736.052734 
	C817.722839,721.627930 796.670715,707.319214 775.456970,693.254272 
	C771.620483,690.710571 771.604614,688.642334 774.238770,685.347595 
	C776.030273,683.106934 777.483521,683.124207 779.673157,684.612000 
	C800.999939,699.103760 822.368835,713.533569 843.720947,727.988098 
	C845.373413,729.106873 847.530029,730.228882 845.618164,732.618591 
	C844.084167,734.535889 843.595825,738.632629 839.141357,736.052734 
z"/>
<path fill="#000000" opacity="1.000000" stroke="none" 
	d="
M120.753021,472.478790 
	C116.881615,472.539490 115.521645,471.064758 116.061150,467.518860 
	C116.554077,464.279083 117.775398,463.023743 121.313065,463.424469 
	C146.577606,466.286041 171.858978,469.002930 197.149445,471.626709 
	C200.406342,471.964630 201.559784,473.343414 201.211441,476.422302 
	C200.912552,479.064209 200.509933,481.519775 196.902908,481.109833 
	C171.666382,478.241730 146.428970,475.381378 120.753021,472.478790 
z"/>
<path fill="#000000" opacity="1.000000" stroke="none" 
	d="
M601.506470,834.360901 
	C599.980042,828.664856 598.647644,823.336365 597.083679,818.076599 
	C596.117188,814.826416 596.982788,813.220642 600.370911,812.296143 
	C603.834961,811.351013 605.329590,812.629028 606.134827,815.722717 
	C610.451660,832.307617 614.798401,848.884766 619.126221,865.466858 
	C619.851379,868.245117 620.112366,870.454590 616.255005,871.458130 
	C612.330444,872.479187 611.082214,870.818970 610.451172,867.541626 
	C610.265137,866.575745 609.867920,865.650452 609.295044,863.850464 
	C605.870789,870.746094 600.883362,875.054260 594.178406,877.299255 
	C592.087341,877.999451 590.173035,878.452698 589.660217,875.461609 
	C589.272522,873.200134 587.434326,870.889893 590.943787,869.090576 
	C604.821655,861.975281 607.280518,856.175537 603.268005,841.023132 
	C602.714783,838.934021 602.157959,836.845947 601.506470,834.360901 
z"/>
<path fill="#000000" opacity="1.000000" stroke="none" 
	d="
M290.060944,271.950134 
	C291.985352,274.057648 293.569519,276.011353 295.385956,277.717804 
	C297.730652,279.920471 298.384583,281.700684 295.538696,284.217468 
	C292.861053,286.585480 291.028961,286.811707 288.504547,284.019562 
	C276.996002,271.290436 265.368835,258.667816 253.708206,246.077423 
	C251.523285,243.718277 250.982727,241.968994 253.712265,239.471085 
	C256.348785,237.058273 258.171082,237.185486 260.263885,239.871185 
	C261.042633,240.870499 261.639069,242.168457 263.467896,242.650253 
	C263.050690,235.558838 265.232452,229.457657 270.001007,224.346268 
	C271.663361,222.564392 273.281433,220.720978 275.620697,223.612885 
	C277.254425,225.632538 279.539978,226.996552 276.679016,230.192978 
	C268.517120,239.311859 268.379089,246.967697 276.097046,256.482971 
	C280.392181,261.778320 285.230438,266.633087 290.060944,271.950134 
z"/>
<path fill="#000000" opacity="1.000000" stroke="none" 
	d="
M450.342773,169.587585 
	C451.929535,179.032715 453.396393,188.043869 455.031830,197.024338 
	C455.620667,200.257858 454.900574,201.880615 451.321625,202.505157 
	C447.827728,203.114838 446.520782,202.071930 445.947876,198.728516 
	C443.034943,181.729202 439.988922,164.752594 436.954926,147.774216 
	C436.441711,144.902435 436.876282,143.060318 440.329926,142.490067 
	C443.265991,142.005249 445.228302,142.056122 445.598022,145.593796 
	C445.733734,146.892303 446.257812,148.150223 446.756317,149.984283 
	C450.890564,144.851364 455.128662,140.291885 461.514923,138.620636 
	C464.242218,137.906906 466.587097,137.077484 467.646118,141.067322 
	C468.593445,144.636536 467.527771,146.093338 464.082825,147.087051 
	C453.311401,150.194077 449.767212,156.058762 450.342773,169.587585 
z"/>
<path fill="#000000" opacity="1.000000" stroke="none" 
	d="
M678.540894,202.414047 
	C682.945435,204.798996 687.002197,207.054321 691.129089,209.172760 
	C693.683472,210.483948 693.771729,212.166138 692.480408,214.454590 
	C691.269348,216.600906 689.996521,217.881714 687.371338,216.422470 
	C680.419556,212.558182 673.428284,208.764038 666.420593,205.001755 
	C663.826233,203.608902 664.023438,201.915955 665.341919,199.690460 
	C666.603943,197.560287 667.866150,196.241821 670.445435,197.803299 
	C672.995789,199.347290 675.627014,200.757629 678.540894,202.414047 
z"/>
<path fill="#000000" opacity="1.000000" stroke="none" 
	d="
M541.791138,834.776489 
	C538.405579,837.401611 535.316895,837.254578 532.574890,834.548157 
	C530.321106,832.323792 530.051025,829.553162 531.562256,826.779846 
	C533.143616,823.877869 535.866150,823.250305 538.837219,823.829590 
	C543.424805,824.724060 544.769043,829.358887 541.791138,834.776489 
z"/>
<path fill="#000000" opacity="1.000000" stroke="none" 
	d="
M342.169250,232.767822 
	C347.742615,233.474472 349.869965,235.614532 349.470398,239.789032 
	C349.095398,243.706329 346.724701,245.749191 342.935120,245.805481 
	C339.471710,245.856934 336.521973,242.342072 336.754242,238.759186 
	C336.958954,235.600769 338.657135,233.589828 342.169250,232.767822 
z"/>
</svg>